<?xml version="1.0" standalone="no"?>
<!DOCTYPE svg PUBLIC "-//W3C//DTD SVG 20010904//EN"
 "http://www.w3.org/TR/2001/REC-SVG-20010904/DTD/svg10.dtd">
<svg version="1.0" xmlns="http://www.w3.org/2000/svg"
 width="695.000000pt" height="464.000000pt" viewBox="0 0 695.000000 464.000000"
 preserveAspectRatio="xMidYMid meet">
<metadata>
Created by potrace 1.16, written by Peter Selinger 2001-2019
</metadata>
<g transform="translate(0.000000,464.000000) scale(0.100000,-0.100000)"
fill="#000000" stroke="none">
<path d="M0 4335 c0 -345 -1 -341 72 -254 48 57 83 79 125 79 66 0 208 -95
268 -180 17 -23 54 -67 83 -97 28 -30 52 -59 52 -65 0 -5 -9 -21 -20 -35 -22
-29 -27 -92 -7 -94 6 0 -4 -5 -23 -11 -19 -5 -53 -23 -74 -40 -32 -26 -48 -31
-86 -30 -87 2 -119 24 -245 172 -52 61 -103 100 -132 100 -11 0 -13 -382 -13
-1940 l0 -1940 1058 0 1057 0 14 32 c20 44 54 72 137 113 94 46 141 53 177 25
15 -12 27 -26 27 -32 0 -6 8 -18 18 -27 22 -21 52 -75 52 -95 0 -15 193 -16
2205 -16 l2205 0 0 2320 0 2320 -955 0 -955 0 -6 -27 c-8 -32 -65 -150 -100
-205 -14 -21 -36 -43 -50 -48 -36 -14 -122 7 -152 37 -22 22 -24 30 -19 86 3
34 3 83 0 109 l-6 48 -196 0 -196 0 -22 -123 c-13 -67 -30 -165 -38 -217 -18
-106 -38 -155 -76 -182 -36 -27 -76 -16 -84 23 -7 33 -5 48 36 213 16 65 32
156 36 202 l6 84 -617 0 -618 0 7 -32 c4 -18 22 -86 41 -151 61 -210 69 -322
21 -315 -18 2 -27 20 -55 103 -33 102 -82 321 -82 369 l0 26 -1435 0 -1435 0
0 -305z m3566 -88 c21 -145 -18 -398 -59 -384 -16 5 -21 248 -8 324 12 61 39
125 51 118 5 -3 12 -29 16 -58z m522 -295 c96 -64 117 -139 62 -225 -54 -85
-140 -112 -211 -64 -39 26 -47 49 -48 135 -1 75 15 119 58 155 42 35 84 35
139 -1z m-996 -32 c32 -25 63 -102 82 -205 8 -44 22 -102 30 -130 29 -92 12
-126 -34 -67 -131 166 -168 231 -185 324 -15 79 48 125 107 78z m426 -232 c1
-7 6 -40 12 -73 9 -45 8 -78 -1 -132 -11 -71 -33 -111 -43 -82 -37 107 -39
123 -29 183 6 34 16 73 22 89 11 27 37 37 39 15z m1205 -16 c39 -35 -2 -154
-63 -183 -63 -29 -76 -29 -112 5 -35 33 -35 33 -21 78 11 40 34 71 76 104 32
26 90 24 120 -4z m-1162 -457 c53 -19 78 -40 95 -82 19 -45 3 -76 -58 -107
-58 -30 -109 -33 -130 -8 -47 55 -49 150 -3 189 31 27 39 28 96 8z m-170 -256
c22 -11 20 -39 -5 -87 -18 -36 -21 -104 -5 -134 15 -28 4 -61 -33 -104 -62
-71 -120 -69 -166 4 -39 61 -56 113 -49 143 12 47 105 177 134 188 30 11 94 6
124 -10z m-1311 -130 c41 -12 142 -46 225 -76 82 -30 173 -61 202 -69 29 -8
77 -20 106 -28 141 -39 256 -93 313 -148 45 -43 46 -43 156 -33 l78 8 35 -37
c36 -38 52 -88 41 -130 -9 -37 -83 -125 -112 -132 -33 -8 -107 20 -150 58 -19
17 -46 52 -60 78 -22 40 -43 59 -113 103 -122 77 -117 75 -471 211 -111 43
-200 84 -249 116 -31 19 -82 51 -113 70 -32 19 -58 37 -58 41 0 8 75 -6 170
-32z m2680 -87 c0 -21 -104 -93 -195 -137 -55 -27 -131 -67 -170 -89 -89 -52
-221 -114 -260 -121 -39 -8 -109 17 -113 39 -8 37 38 68 165 115 88 32 258
100 348 139 108 46 225 74 225 54z m-856 -322 c31 -11 34 -39 10 -96 -20 -49
-138 -171 -180 -184 -46 -16 -94 -20 -94 -9 0 6 -4 8 -9 4 -11 -6 -41 49 -41
75 0 10 16 35 36 56 19 22 46 62 59 91 13 28 32 56 42 62 23 13 144 14 177 1z
m1116 -1459 c19 -5 25 -13 25 -36 0 -40 -39 -58 -135 -63 -65 -3 -78 -1 -97
17 -27 25 -20 56 16 76 27 15 146 19 191 6z"/>
</g>
</svg>
